<?xml version="1.0" standalone="no"?>
<!DOCTYPE svg PUBLIC "-//W3C//DTD SVG 20010904//EN"
 "http://www.w3.org/TR/2001/REC-SVG-20010904/DTD/svg10.dtd">
<svg version="1.0" xmlns="http://www.w3.org/2000/svg"
 width="200.000000pt" height="50.000000pt" viewBox="0 0 3188.000000 775.000000"
 preserveAspectRatio="xMidYMid meet">

<g transform="translate(0.000000,775.000000) scale(0.100000,-0.100000)"
fill="#ebebec" stroke="none">
<path d="M1988 7744 c-5 -4 -8 -52 -8 -106 l0 -98 -40 -25 c-22 -14 -52 -43
-66 -65 l-27 -40 -618 0 -619 0 0 -85 0 -85 333 0 c182 0 463 -3 623 -7 l291
-6 18 -34 c10 -19 38 -46 61 -61 l43 -27 3 -970 3 -970 85 0 85 0 3 970 3 970
42 30 c23 17 51 45 62 62 l20 32 620 3 620 3 3 88 3 87 -623 0 -623 0 -23 40
c-12 22 -40 50 -62 62 l-40 23 0 103 0 102 -47 0 c-27 0 -64 3 -83 6 -19 3
-38 2 -42 -2z"/>
<path d="M359 6480 l-246 -540 32 -6 c17 -3 44 -4 59 -2 25 3 39 29 213 411
102 224 190 404 194 400 4 -4 90 -188 192 -408 l184 -400 56 -3 c34 -2 57 1
57 7 0 6 -59 140 -132 298 -72 158 -180 396 -239 527 -60 132 -112 243 -116
247 -5 4 -119 -235 -254 -531z"/>
<path d="M3390 6722 c-74 -163 -183 -404 -242 -534 -59 -130 -108 -242 -108
-248 0 -7 19 -10 56 -8 l57 3 185 408 c102 224 189 407 192 407 4 0 28 -48 55
-107 42 -96 90 -201 275 -603 l48 -105 56 -3 c38 -2 56 1 56 9 0 6 -68 160
-152 343 -83 182 -184 403 -223 491 -70 156 -113 245 -118 245 -1 0 -63 -134
-137 -298z"/>
<path d="M17846 6110 c-191 -31 -315 -89 -432 -205 -125 -123 -174 -246 -174
-435 0 -206 71 -341 239 -451 108 -71 243 -120 506 -183 338 -82 385 -95 443
-122 79 -35 128 -78 158 -139 23 -48 26 -64 22 -128 -4 -89 -34 -142 -105
-187 -83 -53 -140 -65 -318 -64 -146 0 -167 3 -241 27 -210 70 -358 235 -428
481 -15 48 -26 97 -26 107 0 18 -9 19 -125 19 l-125 0 0 -430 0 -430 109 0
108 0 33 93 c18 50 34 93 35 95 2 2 34 -18 71 -44 94 -64 272 -149 369 -174
343 -89 708 4 892 229 187 228 190 580 7 789 -54 62 -182 149 -282 191 -89 37
-186 64 -492 135 -129 30 -261 64 -293 76 -123 46 -187 125 -187 230 0 171
145 270 394 270 313 -1 546 -190 631 -512 l22 -83 116 -3 117 -3 0 401 0 400
-90 0 -89 0 -56 -75 c-30 -41 -57 -75 -60 -75 -2 0 -36 21 -76 46 -160 104
-312 152 -499 159 -63 2 -142 0 -174 -5z"/>
<path d="M13935 6061 c-121 -55 -170 -197 -109 -319 26 -52 81 -100 132 -117
40 -12 116 -7 160 11 51 20 118 93 132 143 23 82 -4 185 -61 238 -65 60 -178
79 -254 44z"/>
<path d="M22452 6067 c-92 -35 -146 -115 -146 -217 0 -76 23 -130 78 -177 46
-41 96 -56 169 -51 116 8 198 90 205 206 7 101 -38 186 -122 229 -39 20 -142
26 -184 10z"/>
<path d="M25135 6061 c-122 -56 -170 -196 -110 -318 42 -83 109 -124 202 -124
99 0 181 58 218 155 30 78 4 186 -57 243 -63 59 -177 79 -253 44z"/>
<path d="M5522 6033 c-631 -1790 -595 -1692 -637 -1747 -38 -50 -86 -69 -190
-76 l-90 -5 -3 -117 -3 -118 491 0 491 0 -3 118 -3 117 -146 5 c-162 6 -179
12 -179 64 0 25 73 260 105 339 7 16 31 17 352 15 l345 -3 55 -150 c30 -82 54
-167 55 -188 1 -66 -12 -71 -185 -77 l-152 -5 -3 -117 -3 -118 541 0 540 0 0
120 0 120 -77 0 c-94 0 -136 18 -175 75 -15 22 -172 421 -350 895 -178 470
-327 861 -331 868 -6 9 -62 12 -222 12 l-213 0 -10 -27z m308 -796 c71 -191
130 -349 130 -352 0 -3 -115 -5 -255 -5 -140 0 -255 1 -255 3 0 5 207 614 226
665 9 24 18 41 20 39 2 -2 62 -160 134 -350z"/>
<path d="M7820 5957 l0 -104 110 -6 c121 -7 159 -20 180 -64 19 -39 27 -598 7
-569 -91 137 -171 208 -279 246 -89 31 -259 38 -359 16 -175 -39 -308 -144
-387 -306 -67 -136 -84 -216 -89 -425 -4 -157 -2 -193 17 -285 26 -128 63
-219 124 -304 146 -205 417 -284 693 -201 86 26 171 90 233 178 l55 77 3 -120
3 -120 319 0 320 0 0 104 0 104 -100 4 c-92 3 -102 5 -126 29 -20 20 -28 41
-34 95 -5 38 -9 448 -10 912 l0 842 -340 0 -340 0 0 -103z m94 -771 c115 -56
185 -189 206 -388 17 -169 -11 -349 -70 -453 -66 -116 -156 -169 -285 -168
-100 0 -168 27 -224 88 -80 87 -109 180 -118 376 -17 396 103 588 364 575 53
-2 86 -10 127 -30z"/>
<path d="M21010 5956 l0 -103 90 -7 c109 -8 133 -16 157 -53 17 -25 18 -73 21
-758 2 -575 0 -740 -11 -775 -18 -63 -54 -80 -169 -80 l-88 0 0 -105 0 -105
460 0 460 0 0 105 0 105 -84 0 c-103 0 -141 13 -164 54 -16 29 -17 102 -20
929 l-2 897 -325 0 -325 0 0 -104z"/>
<path d="M26266 5988 c-3 -18 -10 -68 -16 -112 -37 -251 -146 -386 -355 -440
l-50 -12 -3 -102 -3 -102 120 0 119 0 5 -467 c5 -506 9 -551 62 -659 66 -135
219 -200 405 -174 147 21 243 88 299 210 42 91 61 194 68 378 l6 152 -105 0
-105 0 -6 -162 c-6 -179 -16 -223 -59 -265 -24 -23 -38 -28 -78 -28 -59 0 -87
22 -100 81 -5 21 -10 240 -10 487 l0 447 205 0 205 0 0 110 0 110 -200 0 -200
0 -2 288 -3 287 -97 3 -97 3 -5 -33z"/>
<path d="M10 5749 c0 -258 201 -508 460 -570 78 -19 222 -16 295 5 166 49 302
160 374 307 41 84 71 201 71 280 l0 39 -600 0 -600 0 0 -61z"/>
<path d="M2933 5728 c9 -146 82 -305 182 -397 99 -92 204 -142 331 -161 262
-38 530 111 634 354 24 57 50 181 50 241 l0 45 -601 0 -602 0 6 -82z"/>
<path d="M9390 5475 c-140 -29 -250 -85 -319 -161 -58 -63 -81 -124 -81 -211
0 -148 89 -237 240 -238 89 0 138 21 184 78 26 32 31 48 34 105 5 105 -37 155
-146 177 l-54 11 58 31 c139 74 357 70 469 -7 58 -40 85 -97 85 -181 -1 -154
-62 -203 -347 -274 -241 -60 -421 -142 -500 -228 -55 -59 -79 -110 -94 -192
-51 -295 192 -510 528 -468 49 6 115 20 147 32 77 27 177 93 226 149 l40 44
19 -45 c30 -70 93 -132 159 -159 83 -32 242 -32 326 1 145 57 209 195 218 466
l3 110 -95 0 -95 0 -5 -136 c-6 -147 -17 -181 -66 -199 -27 -10 -67 1 -81 22
-4 7 -11 218 -14 468 -7 491 -10 524 -62 613 -46 79 -147 142 -285 179 -100
27 -392 35 -492 13z m458 -897 c-6 -181 -19 -225 -90 -303 -63 -70 -126 -97
-227 -98 -85 0 -123 14 -164 62 -32 38 -42 96 -27 152 15 56 111 151 200 199
72 38 290 138 304 139 4 1 6 -68 4 -151z"/>
<path d="M19810 5471 c-167 -36 -285 -98 -394 -206 -109 -108 -173 -231 -203
-388 -19 -102 -13 -322 12 -412 28 -105 91 -219 163 -297 157 -169 366 -252
637 -252 270 0 480 83 636 252 144 156 208 367 187 623 -26 333 -237 584 -563
670 -116 31 -357 36 -475 10z m396 -241 c99 -48 158 -129 196 -266 30 -108 33
-404 5 -504 -41 -148 -105 -238 -205 -287 -73 -35 -217 -44 -305 -19 -192 56
-288 267 -273 601 11 254 74 397 205 468 68 37 119 47 225 42 75 -3 100 -9
152 -35z"/>
<path d="M23805 5475 c-273 -50 -500 -244 -581 -499 -51 -161 -56 -356 -14
-521 34 -136 91 -238 184 -331 45 -44 106 -94 136 -111 232 -131 590 -130 795
2 143 92 238 273 261 498 l7 67 -120 0 -120 0 -13 -62 c-28 -144 -89 -239
-186 -288 -44 -22 -61 -25 -164 -25 -99 0 -122 3 -165 23 -99 46 -162 129
-195 257 -26 100 -28 318 -4 432 33 162 114 280 229 334 52 25 72 29 151 29
108 0 177 -18 254 -67 l55 -36 -45 -13 c-84 -25 -134 -94 -134 -184 1 -58 26
-121 60 -151 81 -71 221 -75 313 -9 122 89 126 317 7 463 -76 93 -198 161
-346 193 -80 17 -271 17 -365 -1z"/>
<path d="M27787 5480 c-374 -67 -616 -326 -645 -689 -20 -252 42 -466 181
-617 123 -134 252 -204 452 -245 87 -18 304 -15 400 6 300 63 516 259 592 535
25 93 25 367 0 460 -73 267 -268 457 -543 531 -88 24 -348 35 -437 19z m284
-224 c141 -33 228 -131 275 -311 25 -98 26 -379 1 -480 -38 -149 -103 -242
-206 -292 -52 -26 -65 -28 -176 -28 -109 0 -125 2 -175 26 -164 79 -238 268
-227 574 10 260 72 406 206 479 84 45 197 57 302 32z"/>
<path d="M30930 5474 c-141 -30 -287 -131 -340 -234 -64 -124 -66 -282 -6
-399 25 -48 90 -115 145 -150 80 -52 186 -89 400 -141 214 -52 320 -93 347
-135 58 -89 25 -193 -81 -248 -50 -26 -180 -34 -267 -17 -177 34 -308 161
-364 351 l-15 49 -114 0 -115 0 0 -300 0 -301 106 3 106 3 26 62 25 63 31 -21
c59 -40 212 -107 281 -124 92 -23 283 -24 384 -1 160 36 294 131 351 251 38
80 53 188 39 276 -35 218 -191 335 -569 424 -311 73 -357 90 -385 145 -19 37
-19 103 0 140 58 112 281 133 447 43 91 -50 182 -166 222 -286 5 -16 17 -17
108 -15 l103 3 3 273 2 272 -89 0 -90 0 -31 -55 c-17 -30 -36 -55 -42 -55 -5
0 -22 8 -36 19 -54 37 -156 83 -230 102 -90 23 -254 25 -352 3z"/>
<path d="M11693 5465 c-118 -33 -230 -108 -319 -213 l-54 -63 0 125 0 126
-325 0 -325 0 0 -104 0 -103 97 -7 c111 -8 142 -19 163 -61 22 -43 22 -872 1
-924 -20 -46 -60 -61 -171 -61 l-90 0 0 -105 0 -105 430 0 430 0 0 105 0 105
-62 0 c-81 0 -122 23 -137 77 -15 52 -14 616 0 685 17 77 54 144 113 203 70
69 113 89 211 93 69 3 86 0 125 -20 38 -21 49 -33 69 -84 24 -58 24 -68 29
-399 6 -520 -1 -546 -143 -553 l-75 -4 0 -104 0 -104 400 0 400 0 0 104 0 104
-75 4 c-66 3 -78 7 -102 31 l-28 27 0 358 c0 354 0 358 24 417 18 44 42 78 90
126 76 76 129 99 228 99 112 0 166 -39 189 -137 21 -87 20 -809 -1 -859 -18
-43 -63 -64 -140 -64 l-55 0 0 -105 0 -105 425 0 426 0 -3 103 -3 102 -95 5
c-52 3 -105 11 -116 18 -44 24 -47 53 -54 532 -5 292 -11 468 -18 490 -50 155
-178 246 -362 257 -173 11 -302 -44 -460 -194 l-98 -94 -32 65 c-41 83 -109
151 -189 189 -56 26 -77 31 -165 34 -68 2 -118 -2 -153 -12z"/>
<path d="M15638 5470 c-80 -14 -155 -55 -219 -120 -32 -33 -66 -75 -76 -92
l-18 -33 -5 105 -5 105 -327 3 -328 2 0 -103 0 -104 95 -7 c112 -8 138 -16
162 -53 16 -25 18 -62 21 -438 4 -465 0 -504 -51 -536 -26 -15 -51 -19 -129
-19 l-98 0 0 -105 0 -105 495 0 496 0 -3 103 -3 102 -131 5 c-200 8 -194 -5
-194 388 0 159 5 315 11 348 29 165 120 313 223 366 51 26 134 34 191 18 50
-14 57 -25 22 -34 -41 -10 -106 -65 -128 -108 -30 -59 -24 -151 14 -201 82
-108 287 -102 373 10 39 51 53 98 54 174 0 89 -22 149 -82 214 -59 65 -130
101 -225 115 -76 11 -70 11 -135 0z"/>
<path d="M29914 5465 c-34 -7 -75 -20 -91 -29 -57 -29 -129 -93 -168 -151
l-40 -58 -3 107 -3 106 -329 0 -330 0 0 -103 0 -104 93 -6 c111 -7 140 -17
164 -54 16 -25 18 -62 21 -450 2 -280 -1 -436 -8 -463 -16 -60 -45 -74 -164
-80 l-101 -5 -3 -102 -3 -103 496 0 495 0 0 105 0 105 -122 0 c-104 0 -128 3
-155 20 -51 31 -55 63 -51 408 3 252 7 318 21 367 70 244 236 375 408 323 44
-13 49 -23 16 -32 -13 -3 -42 -19 -66 -36 -108 -79 -108 -245 1 -317 61 -41
165 -45 241 -10 91 41 136 120 137 238 0 78 -17 133 -61 195 -77 106 -247 162
-395 129z"/>
<path d="M13570 5337 l0 -104 105 -6 c127 -8 160 -22 175 -75 8 -25 10 -178 8
-474 l-3 -438 -28 -27 c-26 -27 -33 -28 -140 -33 l-112 -5 -3 -102 -3 -103
476 0 476 0 -3 103 -3 102 -102 5 c-94 5 -105 7 -129 31 -39 39 -43 106 -44
702 l0 527 -335 0 -335 0 0 -103z"/>
<path d="M22080 5337 l0 -104 99 -7 c117 -7 144 -16 168 -53 17 -25 18 -60 18
-463 0 -483 -1 -491 -61 -516 -21 -9 -70 -14 -129 -14 l-95 0 0 -105 0 -105
470 0 470 0 0 105 0 105 -87 0 c-113 0 -152 18 -170 75 -8 29 -12 201 -12 613
l-1 572 -335 0 -335 0 0 -103z"/>
<path d="M24770 5337 l0 -104 105 -6 c127 -8 160 -22 175 -75 8 -25 10 -178 8
-474 l-3 -438 -28 -27 c-26 -27 -33 -28 -140 -33 l-112 -5 -3 -102 -3 -103
476 0 476 0 -3 103 -3 102 -102 5 c-94 5 -105 7 -129 31 -39 39 -43 106 -44
702 l0 527 -335 0 -335 0 0 -103z"/>
<path d="M1280 4955 l0 -85 790 0 790 0 0 85 0 85 -790 0 -790 0 0 -85z"/>
<path d="M845 4725 c-4 -41 -5 -81 -1 -90 5 -13 142 -15 1225 -15 l1219 0 6
23 c7 28 7 106 0 135 l-6 22 -1218 0 -1218 0 -7 -75z"/>
<path d="M1313 4379 c-62 -18 -103 -94 -103 -191 0 -64 37 -342 61 -462 11
-55 38 -154 60 -220 41 -121 159 -378 223 -484 132 -218 209 -440 222 -645 l7
-98 75 -56 c117 -89 149 -142 197 -325 25 -98 29 -106 46 -97 11 5 31 33 45
62 40 79 62 106 104 127 78 40 151 16 189 -62 18 -38 21 -62 21 -165 0 -225
-70 -401 -234 -585 -165 -187 -179 -225 -169 -479 l6 -166 -31 -55 c-18 -31
-32 -62 -32 -70 0 -8 15 -20 33 -26 17 -6 63 -22 100 -36 96 -37 230 -50 370
-37 241 23 549 122 685 220 32 24 42 38 42 59 0 15 -25 112 -55 215 -167 576
-266 1065 -252 1257 10 158 35 170 402 200 321 26 454 64 501 144 21 36 14
128 -16 186 -45 88 -128 121 -372 145 -356 35 -700 129 -968 265 -192 98 -281
160 -396 274 -155 156 -252 317 -388 646 -90 219 -176 397 -210 438 -25 29
-33 32 -79 31 -29 0 -66 -5 -84 -10z"/>
<path d="M2645 4100 c-157 -33 -323 -157 -381 -285 -48 -105 -41 -269 16 -391
38 -78 128 -165 213 -205 134 -62 260 -59 404 11 100 49 169 114 208 195 25
51 30 75 33 161 5 117 -9 180 -65 286 -85 162 -271 262 -428 228z"/>
<path d="M7007 2744 c-4 -4 -7 -250 -7 -546 l0 -538 70 0 70 0 -2 543 -3 542
-60 3 c-34 2 -64 0 -68 -4z"/>
<path d="M21000 2200 l0 -540 65 0 65 0 0 255 0 255 215 0 215 0 0 65 0 65
-215 0 -215 0 0 155 0 155 358 2 357 3 3 63 3 62 -426 0 -425 0 0 -540z"/>
<path d="M26560 2200 l0 -540 483 0 482 0 53 105 52 105 219 0 219 0 57 -105
56 -105 70 0 71 0 -45 83 c-24 45 -122 234 -216 420 l-172 337 -39 0 -39 0
-203 -400 c-188 -370 -203 -396 -206 -360 l-3 40 -350 0 -349 0 0 480 0 480
-70 0 -70 0 0 -540z m1373 -59 c42 -81 77 -151 77 -155 0 -3 -72 -6 -160 -6
-88 0 -160 3 -160 6 0 10 155 304 160 304 3 0 40 -67 83 -149z"/>
<path d="M10582 2509 c-265 -44 -433 -244 -407 -484 14 -138 113 -270 248
-334 94 -44 159 -56 287 -55 96 1 127 5 188 27 93 32 161 77 218 141 l44 51
-2 125 -3 125 -172 3 -173 2 0 -65 0 -65 105 0 105 0 0 -49 c0 -46 -3 -52 -42
-85 -74 -64 -134 -81 -283 -81 -122 0 -134 2 -192 29 -75 34 -152 111 -177
178 -23 60 -19 175 9 233 47 97 157 167 286 183 152 19 297 -20 382 -103 l37
-36 52 37 51 38 -56 52 c-122 114 -315 164 -505 133z"/>
<path d="M14818 2505 c-154 -31 -281 -125 -340 -252 -40 -85 -50 -207 -24
-295 35 -121 145 -236 271 -286 268 -105 586 -1 698 227 30 62 32 72 32 176 0
103 -2 114 -31 176 -96 202 -345 306 -606 254z m225 -120 c212 -27 344 -254
253 -438 -32 -67 -89 -120 -165 -156 -51 -24 -67 -26 -181 -26 -114 0 -130 2
-182 27 -156 73 -225 221 -179 381 30 105 155 200 284 216 61 8 75 8 170 -4z"/>
<path d="M7447 2493 c-4 -3 -7 -192 -7 -420 l0 -413 65 0 65 0 0 297 c0 256 2
295 14 283 8 -8 76 -105 151 -215 76 -110 143 -206 150 -213 10 -11 42 30 168
214 l157 227 0 -297 0 -296 70 0 70 0 -2 418 -3 417 -54 0 -54 0 -166 -237
c-91 -130 -169 -239 -173 -243 -3 -3 -83 104 -178 239 l-172 246 -47 0 c-26 0
-51 -3 -54 -7z"/>
<path d="M8637 2493 c-4 -3 -7 -192 -7 -420 l0 -413 65 0 65 0 2 298 3 297
140 -204 c77 -112 149 -215 160 -228 l20 -24 155 224 155 225 3 -294 2 -294
65 0 65 0 0 421 0 420 -52 -3 -53 -3 -169 -242 c-94 -133 -173 -240 -176 -238
-4 2 -82 112 -175 244 l-168 241 -47 0 c-26 0 -50 -3 -53 -7z"/>
<path d="M9820 2080 l0 -420 65 0 65 0 0 420 0 420 -65 0 -65 0 0 -420z"/>
<path d="M12504 2089 c-115 -226 -210 -415 -212 -420 -2 -5 27 -9 65 -9 l68 0
53 105 52 105 223 0 222 0 53 -105 52 -105 71 0 70 0 -122 238 c-67 130 -164
319 -216 420 l-94 182 -38 0 -38 0 -209 -411z m405 -101 c1 -5 -71 -8 -160 -8
-88 0 -159 3 -157 8 2 4 39 77 82 162 l79 155 78 -155 c43 -85 78 -158 78
-162z"/>
<path d="M13120 2440 l0 -60 175 0 175 0 0 -360 0 -360 65 0 65 0 0 360 0 360
180 0 181 0 -3 58 -3 57 -417 3 -418 2 0 -60z"/>
<path d="M14090 2080 l0 -420 65 0 65 0 0 420 0 420 -65 0 -65 0 0 -420z"/>
<path d="M15677 2494 c-4 -4 -7 -193 -7 -421 l0 -413 70 0 70 0 2 287 3 286
259 -286 c241 -266 262 -287 293 -287 l33 0 0 420 0 421 -62 -3 -63 -3 -5
-288 -5 -288 -260 288 c-220 243 -265 288 -291 291 -16 2 -33 0 -37 -4z"/>
<path d="M17623 2488 c-6 -7 -104 -196 -218 -420 l-207 -408 69 0 68 0 55 105
54 105 221 0 220 0 54 -105 54 -105 70 0 c51 0 68 3 64 13 -3 6 -100 194 -214
417 l-208 405 -36 3 c-21 2 -40 -2 -46 -10z m197 -498 c0 -6 -61 -10 -161 -10
l-161 0 83 159 83 160 78 -150 c43 -82 78 -154 78 -159z"/>
<path d="M18260 2080 l0 -420 65 0 65 0 2 289 3 289 260 -289 c252 -279 261
-288 298 -289 l37 0 -2 418 -3 417 -62 3 -63 3 -2 -294 -3 -294 -223 246
c-331 366 -306 341 -341 341 l-31 0 0 -420z"/>
<path d="M19280 2081 l0 -421 220 0 c293 0 371 19 477 114 79 71 114 151 121
269 8 151 -36 262 -136 345 -105 88 -166 102 -454 109 l-228 6 0 -422z m496
271 c199 -69 257 -342 105 -490 -65 -63 -110 -74 -303 -80 l-168 -4 0 296 0
296 158 0 c123 -1 168 -4 208 -18z"/>
<path d="M22007 2478 c-8 -13 -105 -202 -216 -420 l-201 -398 70 0 70 0 52
105 53 105 222 0 223 0 52 -105 53 -105 67 0 c38 0 68 2 68 5 0 6 -398 783
-416 813 -11 16 -24 22 -49 22 -25 0 -38 -6 -48 -22z m143 -359 c33 -65 60
-123 60 -129 0 -12 -310 -14 -310 -2 -1 4 34 75 77 158 l78 151 18 -29 c9 -16
44 -83 77 -149z"/>
<path d="M22650 2080 l0 -420 65 0 65 0 2 297 3 297 155 -227 c85 -124 157
-226 160 -227 3 0 75 101 160 225 l155 225 3 -295 2 -295 65 0 65 0 0 420 0
420 -49 0 c-60 0 -46 15 -246 -273 -82 -119 -152 -216 -155 -216 -3 0 -77 104
-165 231 -88 127 -166 237 -173 244 -8 8 -34 14 -63 14 l-49 0 0 -420z"/>
<path d="M23840 2080 l0 -420 65 0 65 0 0 420 0 420 -65 0 -65 0 0 -420z"/>
<path d="M24267 2493 c-4 -3 -7 -192 -7 -420 l0 -413 375 0 375 0 0 60 0 60
-310 0 -310 0 0 360 0 360 -58 0 c-32 0 -62 -3 -65 -7z"/>
<path d="M24850 2491 c0 -5 83 -99 185 -208 l184 -198 1 -212 0 -213 65 0 65
0 0 216 0 215 185 197 c102 108 185 200 185 204 0 5 -36 8 -80 8 l-79 0 -138
-150 -138 -150 -70 73 c-38 39 -103 107 -143 150 l-74 77 -74 0 c-41 0 -74 -4
-74 -9z"/>
<path d="M28290 2488 c0 -7 62 -195 138 -418 l137 -405 48 0 49 0 106 307 c59
169 110 309 113 313 3 3 55 -136 114 -310 l108 -315 48 0 47 0 35 103 c188
554 245 726 240 731 -12 11 -111 6 -120 -6 -6 -7 -54 -146 -108 -307 l-98
-295 -50 145 c-28 79 -76 216 -106 304 l-56 160 -54 0 -53 0 -69 -200 c-38
-110 -86 -247 -106 -305 l-37 -104 -101 304 -102 305 -61 3 c-46 2 -62 0 -62
-10z"/>
<path d="M11390 2075 l0 -415 70 0 70 0 0 180 0 180 183 0 182 0 115 -180 115
-180 72 0 72 0 -114 182 -115 182 34 11 c63 22 107 57 136 109 55 95 35 231
-43 291 -68 51 -102 55 -454 55 l-323 0 0 -415z m687 262 c23 -23 28 -36 28
-77 0 -41 -5 -54 -28 -77 l-27 -28 -260 -3 -260 -3 0 111 0 111 260 -3 260 -3
27 -28z"/>
<path d="M3544 2196 c-59 -28 -121 -96 -130 -143 -21 -114 59 -226 179 -253
65 -15 111 -3 163 42 60 53 82 183 45 263 -49 106 -149 141 -257 91z"/>
<path d="M4158 2203 c-8 -10 -39 -67 -69 -128 -46 -96 -64 -121 -138 -196 -91
-91 -143 -122 -230 -139 -72 -13 -207 2 -263 31 -49 25 -167 141 -251 247
-110 139 -222 151 -235 24 -6 -69 28 -139 162 -337 132 -194 142 -214 214
-431 72 -216 83 -278 80 -456 -2 -75 -1 -138 2 -141 3 -3 129 28 280 67 l275
73 3 351 2 351 35 27 c75 57 224 324 260 464 20 78 13 162 -16 191 -25 25 -90
26 -111 2z"/>
<path d="M1475 2096 c-135 -43 -204 -130 -205 -257 0 -98 30 -187 81 -238 46
-46 139 -81 213 -81 192 0 334 189 281 376 -22 79 -72 146 -137 184 -46 26
-63 30 -123 29 -38 0 -88 -6 -110 -13z"/>
<path d="M2270 1913 c-44 -31 -79 -77 -141 -188 -108 -192 -131 -226 -192
-291 -81 -87 -168 -130 -294 -146 -118 -14 -203 -1 -298 46 -89 44 -161 109
-287 258 -127 151 -162 178 -235 178 -45 0 -58 -4 -80 -26 -24 -24 -25 -31
-21 -93 10 -137 103 -280 342 -530 105 -109 155 -169 172 -205 32 -70 44 -191
44 -452 0 -116 3 -266 7 -332 5 -104 9 -122 22 -122 47 0 334 190 507 334 177
148 187 171 178 394 -5 144 -4 162 15 217 25 71 63 129 161 251 117 145 225
388 237 534 7 81 -7 130 -48 165 -36 29 -56 31 -89 8z"/>
</g>
</svg>
